<?xml version="1.0" encoding="utf-8"?>
<!-- Generator: Adobe Illustrator 21.1.0, SVG Export Plug-In . SVG Version: 6.00 Build 0)  -->
<svg version="1.1" id="レイヤー_1" xmlns="http://www.w3.org/2000/svg" xmlns:xlink="http://www.w3.org/1999/xlink" x="0px"
	 y="0px" viewBox="0 0 500 500" style="enable-background:new 0 0 500 500;" xml:space="preserve">
<style type="text/css">
	.st0{fill:url(#SVGID_1_);}
	.st1{fill:#EFEFEF;}
</style>
<g id="レイヤー_1_1_">
</g>
<g id="レイヤー_3">
	
		<linearGradient id="SVGID_1_" gradientUnits="userSpaceOnUse" x1="118.3561" y1="377.7536" x2="379.1014" y2="124.7135" gradientTransform="matrix(1 0 0 -1 0 500)">
		<stop  offset="0.1455" style="stop-color:#37AB85"/>
		<stop  offset="0.9044" style="stop-color:#D04545"/>
	</linearGradient>
	<path class="st0" d="M355.4,431.7H144.6c-42,0-76.3-34.3-76.3-76.3V144.6c0-42,34.3-76.3,76.3-76.3h210.7c42,0,76.3,34.3,76.3,76.3
		v210.7C431.7,397.3,397.3,431.7,355.4,431.7z"/>
	<path class="st1" d="M214.3,335.3c72.6,0,112.3-60.1,112.3-112.3c0-1.7,0-3.4-0.1-5.1c7.7-5.6,14.4-12.5,19.7-20.4
		c-7.2,3.2-14.8,5.3-22.7,6.2c8.2-4.9,14.4-12.7,17.4-21.8c-7.7,4.6-16.2,7.8-25.1,9.6c-14.9-15.9-40-16.7-55.8-1.7
		c-10.3,9.6-14.6,24-11.4,37.7c-31.7-1.6-61.3-16.6-81.3-41.2c-10.5,18-5.1,41.1,12.2,52.7c-6.3-0.2-12.4-1.9-17.9-4.9
		c0,0.2,0,0.3,0,0.5c0,18.8,13.2,35,31.7,38.7c-5.8,1.6-11.9,1.8-17.8,0.7c5.2,16.1,20,27.1,36.9,27.4c-14,11-31.2,16.9-49,16.9
		c-3.1,0-6.3-0.2-9.4-0.6C171.9,329.1,192.9,335.3,214.3,335.3"/>
</g>
</svg>
